<?xml version="1.0" encoding="UTF-8"?>
<svg id="Layer_1" xmlns="http://www.w3.org/2000/svg" viewBox="0 0 225.99 206.25">
<defs>
<style>
.fill {
    fill: rgb(217, 83, 38);
    stroke-width: 4px;
    stroke: rgb(15, 69, 87);
    transition: fill cubic-bezier(0.175, 0.885, 0.32, 1.275) 500ms;
}
</style>
</defs>
    <path class="fill" d="M127.49,112.81c6.15,14.83,11.97,28.9,15.76,44.71,.8,1.56,2.49,2.46,4.24,2.32,17.42-1.31,34.81-2.89,52.24-3.88,6.53,.94,11.85,8.59,18.18,15.59,2.72,3.28-.32,8.12-4.45,7.12-20.32-4.94-40.98-8.49-61.81-11.25-13.06-4.06-6.56,33.89-43.42,34.74-60.84-.54-64.74-32.34-93.14-75.87-6.13-8.36-13.8-16.64-9.63-27.64C13.63,43.41,75.3,29.25,121.61,17.58c20-5.19,39.67-11.46,60.47-12.65,3.78-.52,4.81,1.29,6.1,4.27,4.3,9.54,8.56,19.23,13.36,28.55,2.77,12.39-15.58,2.7-21.43,2.41-25.17-5.03-51.98-5.75-77.48-2.69-17.78,4.31-36.04,9.41-52.77,16.53C30.17,62.06-2.31,95.37,12.13,116.55c8.49,10.84,15.27,22.83,23.44,33.91,17.25,20.47,35.12,42.04,63.88,45,15.61,2.85,45.53-7.41,36.39-27.35-15.96-35.01-36.36-69.64-36.16-109.19-.67-2.12,20.24-17.11,20.28-4.99-3.72,17.23,.58,33.91,4.22,50.76,.12,.59,1.43,1.55,1.92,1.42,14.83-3.82,29.62-7.76,44.44-11.61,4.97,1.02,10.72,10.09,15.23,13.51,2.94,2.97,.49,8.01-3.66,7.51-18.22-2.19-37-7.3-54.52-2.82-.08-.18-.17-.36-.25-.53l-.27,.2c.14,.14,.27,.29,.41,.43Z"/>
</svg>
