<?xml version="1.0" encoding="UTF-8"?><svg id="Layer_1" xmlns="http://www.w3.org/2000/svg" viewBox="0 0 225.99 206.25"><defs><style>.cls-1{fill:#fff;}.cls-1,.cls-2,.cls-3{stroke:#000;stroke-miterlimit:10;}.cls-1,.cls-3{stroke-width:4px;}.cls-2{fill:#c6c6c6;stroke-width:2px;}</style></defs><path class="cls-1" d="M182.38,2.19c-40.03,6.67-80.37,15.84-117.72,31.85-19.2,6.55-39.4,16.11-49.65,34.37C11.67,77.71,.37,101.8,2.22,110.7c13.2,19.06,25.24,39.03,37.4,58.88,4.74,7.42,8.13,15.33,16.43,21.04,30.39,18.23,79.29,23.68,90-19.03,.27-.99,1.92-2.48,2.73-2.37,23.59,2.84,47.18,5.17,69.77,12.93,4.16,1.01,7.16-3.97,4.36-7.21-5.66-6.53-12.47-12.42-18.13-18.92-.76-.88-1.82-1.45-2.98-1.53-65.13-1.68-49.72,25.38-70.52-38.72-.2-.62,.94-2.35,1.42-2.34,11.56,.27,23.16,.24,34.66,1.25,5.85,.16,11.73,1.6,17.58,2.72,4.4,.84,7.12-4.68,3.77-7.65-29.99-27.94-.35-16.41-55.74-6.64-3.39,.72-7.44,2.71-8.71-3.3-4.05-16.14-5.26-32.04-2.94-48.23,.52-3.64-3.31-6.3-6.52-4.53-6.48,4.95-19.27,5.5-16.67,16.49,3.33,14.94,3.8,30.67,8.93,44.98,7.53,21.02,17.95,41.15,27.52,61.51,6.42,12.63-9.33,18.64-18.66,22.09-48.82,11.31-74.49-40.37-99.31-72.47-5.19-6.77-8.32-12.54-4.95-21.63C41.15,29.4,137.1,31.52,199.23,45.83c3.76,.8,6.69-3.25,4.75-6.56-5.38-9.14-11.71-17.88-13.71-28.63-.88-3.58,.06-9.8-7.87-8.45Z"/><path class="cls-3" d="M182.38,2.19c7.94-1.35,6.99,4.88,7.87,8.45,2.01,10.76,8.34,19.49,13.72,28.63,1.95,3.31-.98,7.36-4.74,6.56C137.14,31.5,41.11,29.42,11.63,98.02c-3.37,9.09-.24,14.86,4.95,21.63,24.79,32.09,50.51,83.78,99.3,72.47,9.33-3.42,25.08-9.48,18.66-22.09-9.56-20.36-19.98-40.49-27.52-61.51-5.13-14.31-5.6-30.04-8.93-44.98-2.61-11.01,10.19-11.53,16.67-16.5,3.22-1.78,7.05,.89,6.52,4.53-2.32,16.19-1.12,32.08,2.94,48.23,1.28,6.01,5.33,4.01,8.71,3.3,55.39-9.76,25.74-21.31,55.74,6.64,3.35,2.97,.63,8.49-3.77,7.65-5.85-1.12-11.73-2.56-17.58-2.71-11.5-1.01-23.1-.99-34.66-1.25-.48-.01-1.62,1.72-1.42,2.34,20.79,64.09,5.42,37.04,70.52,38.72,1.16,.08,2.22,.66,2.98,1.53,5.66,6.5,12.47,12.39,18.13,18.92,2.8,3.23-.2,8.22-4.36,7.21-22.59-7.76-46.17-10.09-69.77-12.93-.81-.1-2.46,1.39-2.73,2.37-10.68,42.69-59.63,37.28-90,19.03-8.3-5.71-11.69-13.62-16.43-21.04-12.16-19.83-24.17-39.82-37.4-58.86-1.9-8.85,9.49-33.02,12.79-42.3,10.27-18.26,30.44-27.83,49.65-34.38C102.01,18.02,142.36,8.86,182.38,2.19Zm-49.6,109.5c15.97-2.55,32.91,1.88,49.35,3.86,14.16-2.48-5.95-15.73-9.25-20.4-.49-.49-1.66-.81-2.34-.64-14.82,3.85-29.61,7.79-44.44,11.61-.49,.13-1.8-.83-1.92-1.42-3.65-16.85-7.95-33.53-4.22-50.76-.08-12.21-20.94,2.99-20.29,4.99-.2,39.56,20.2,74.18,36.16,109.19,9.13,19.99-20.76,30.12-36.39,27.35-28.75-2.97-46.63-24.53-63.88-45-8.17-11.07-14.95-23.07-23.44-33.91C-2.35,95.38,30.23,62.04,49.85,54.01c16.73-7.12,34.99-12.22,52.77-16.53,25.5-3.06,52.3-2.34,77.48,2.69,5.98,.23,24.1,10.06,21.44-2.41-4.8-9.32-9.06-19.01-13.36-28.55-1.29-2.98-2.32-4.79-6.1-4.27-20.8,1.19-40.46,7.45-60.47,12.65C75.32,29.24,13.61,43.42,5.44,98.66c-4.12,11,3.47,19.27,9.63,27.63,28.4,43.51,32.3,75.34,93.14,75.87,36.85-.83,30.33-38.78,43.42-34.74,20.83,2.76,41.5,6.32,61.82,11.25,4.14,1.01,7.18-3.84,4.45-7.12-6.31-6.99-11.69-14.67-18.18-15.6-17.44,.99-34.84,2.57-52.25,3.88-7.88-.39-5.43-14.11-8.68-18.36-2.89-8-6.15-15.88-9.34-23.78-1.05-2.61,.55-5.58,3.34-6.02Z"/><path class="cls-2" d="M127.49,112.81c6.15,14.83,11.97,28.9,15.76,44.71,.8,1.56,2.49,2.46,4.24,2.32,17.42-1.31,34.81-2.89,52.24-3.88,6.53,.94,11.85,8.59,18.18,15.59,2.72,3.28-.32,8.12-4.45,7.12-20.32-4.94-40.98-8.49-61.81-11.25-13.06-4.06-6.56,33.89-43.42,34.74-60.84-.54-64.74-32.34-93.14-75.87-6.13-8.36-13.8-16.64-9.63-27.64C13.63,43.41,75.3,29.25,121.61,17.58c20-5.19,39.67-11.46,60.47-12.65,3.78-.52,4.81,1.29,6.1,4.27,4.3,9.54,8.56,19.23,13.36,28.55,2.77,12.39-15.58,2.7-21.43,2.41-25.17-5.03-51.98-5.75-77.48-2.69-17.78,4.31-36.04,9.41-52.77,16.53C30.17,62.06-2.31,95.37,12.13,116.55c8.49,10.84,15.27,22.83,23.44,33.91,17.25,20.47,35.12,42.04,63.88,45,15.61,2.85,45.53-7.41,36.39-27.35-15.96-35.01-36.36-69.64-36.16-109.19-.67-2.12,20.24-17.11,20.28-4.99-3.72,17.23,.58,33.91,4.22,50.76,.12,.59,1.43,1.55,1.92,1.42,14.83-3.82,29.62-7.76,44.44-11.61,4.97,1.02,10.72,10.09,15.23,13.51,2.94,2.97,.49,8.01-3.66,7.51-18.22-2.19-37-7.3-54.52-2.82-.08-.18-.17-.36-.25-.53l-.27,.2c.14,.14,.27,.29,.41,.43Z"/><path class="cls-3" d="M127.49,112.81c-.14-.14-.27-.29-.41-.43l.27-.2c.08,.18,.17,.36,.25,.53,0,0-.12,.1-.12,.1Z"/></svg>