<?xml version="1.0" standalone="no"?>
<!DOCTYPE svg PUBLIC "-//W3C//DTD SVG 20010904//EN"
 "http://www.w3.org/TR/2001/REC-SVG-20010904/DTD/svg10.dtd">
<svg version="1.0" xmlns="http://www.w3.org/2000/svg"
 width="904.000000pt" height="904.000000pt" viewBox="0 0 904.000000 904.000000"
 preserveAspectRatio="xMidYMid meet">
<metadata>
Created by potrace 1.14, written by Peter Selinger 2001-2017
</metadata>
<g transform="translate(0.000000,904.000000) scale(0.100000,-0.100000)"
fill="#000000" stroke="none">
<path d="M7278 8525 c-2 -2 -46 -6 -98 -10 -52 -3 -113 -8 -135 -11 -22 -2
-56 -6 -75 -8 -19 -2 -53 -7 -75 -10 -22 -3 -60 -7 -85 -10 -25 -4 -56 -8 -69
-11 -12 -2 -42 -7 -65 -9 -22 -3 -52 -8 -66 -11 -14 -3 -36 -8 -50 -10 -34 -5
-75 -12 -140 -25 -30 -6 -66 -14 -80 -16 -14 -3 -65 -14 -115 -25 -49 -12 -97
-22 -105 -24 -17 -3 -196 -47 -250 -60 -11 -3 -28 -7 -37 -9 -69 -17 -311 -79
-323 -83 -23 -9 -54 -17 -101 -28 -12 -2 -47 -12 -78 -21 -31 -9 -67 -18 -80
-21 -13 -2 -32 -8 -43 -14 -10 -5 -18 -8 -18 -5 0 2 -21 -3 -47 -11 -27 -8
-59 -17 -73 -19 -21 -4 -56 -13 -115 -30 -33 -10 -172 -46 -185 -49 -8 -2 -44
-11 -80 -20 -36 -9 -73 -19 -82 -21 -34 -8 -53 -12 -158 -39 -58 -15 -114 -29
-125 -32 -38 -8 -50 -11 -50 -13 0 -1 -11 -4 -25 -6 -14 -3 -56 -14 -95 -25
-38 -12 -78 -23 -90 -25 -11 -2 -87 -22 -170 -45 -82 -22 -158 -43 -168 -44
-9 -2 -22 -7 -27 -10 -5 -3 -19 -8 -30 -11 -55 -12 -183 -48 -237 -68 -24 -8
-43 -13 -43 -10 0 2 -10 -1 -22 -8 -13 -6 -27 -13 -33 -14 -5 -2 -19 -5 -30
-8 -24 -5 -264 -84 -285 -93 -8 -3 -19 -7 -25 -9 -17 -4 -148 -52 -180 -65
-16 -7 -35 -13 -41 -14 -32 -7 -393 -157 -514 -213 -47 -21 -100 -45 -118 -53
-17 -8 -32 -17 -32 -21 0 -5 -6 -8 -12 -8 -7 0 -37 -13 -65 -28 -29 -15 -83
-43 -120 -62 -38 -19 -70 -37 -73 -41 -3 -3 -9 -8 -15 -10 -8 -3 -58 -32 -163
-94 -10 -5 -32 -20 -49 -32 -17 -13 -34 -23 -37 -23 -4 0 -114 -74 -151 -102
-5 -4 -50 -38 -100 -75 -83 -62 -117 -89 -166 -135 -11 -10 -21 -18 -24 -18
-5 0 -38 -31 -155 -144 -65 -63 -113 -115 -205 -220 -27 -31 -73 -89 -117
-150 -21 -28 -41 -55 -46 -61 -32 -39 -166 -272 -214 -375 -33 -69 -66 -137
-74 -152 -9 -16 -12 -28 -8 -28 3 0 1 -7 -6 -15 -7 -8 -9 -15 -5 -15 4 0 3 -6
-2 -12 -9 -11 -60 -156 -70 -195 -2 -7 -5 -21 -7 -30 -3 -10 -5 -18 -6 -18 -2
0 -7 -22 -15 -60 -3 -16 -8 -37 -12 -45 -3 -8 -7 -19 -8 -25 0 -5 -4 -26 -9
-45 -4 -19 -8 -42 -10 -50 -2 -8 -6 -31 -9 -50 -4 -19 -9 -46 -11 -60 -2 -14
-11 -50 -20 -80 -24 -78 -30 -123 -30 -220 -1 -143 22 -241 90 -385 32 -67
105 -188 116 -193 5 -2 8 -9 8 -16 0 -7 8 -21 18 -32 10 -10 32 -39 49 -64 17
-25 40 -56 52 -69 12 -13 21 -27 21 -31 0 -3 8 -15 18 -26 17 -18 97 -129 117
-163 17 -28 77 -123 112 -178 18 -28 33 -56 33 -62 0 -6 3 -11 8 -11 4 0 19
-21 32 -48 14 -26 27 -49 30 -52 5 -5 166 -277 208 -352 52 -92 165 -285 174
-295 6 -7 7 -13 3 -13 -3 0 3 -12 15 -28 12 -15 28 -40 36 -57 8 -16 24 -46
36 -65 11 -19 26 -44 32 -55 6 -11 24 -39 39 -62 15 -24 27 -47 27 -53 0 -5 3
-10 8 -10 4 0 13 -15 21 -32 8 -18 17 -35 21 -38 3 -3 28 -41 56 -85 49 -80
251 -376 263 -385 3 -3 33 -39 66 -80 79 -99 122 -147 231 -255 112 -112 147
-142 254 -222 47 -34 90 -67 95 -71 19 -15 181 -111 240 -142 63 -32 255 -116
290 -126 6 -1 48 -16 95 -33 47 -16 105 -35 130 -41 77 -20 164 -40 190 -45
14 -3 36 -8 50 -11 14 -4 34 -8 45 -9 11 -2 34 -6 50 -10 33 -7 71 -13 129
-20 21 -3 50 -7 65 -9 132 -21 406 -38 616 -39 161 0 244 6 359 29 11 2 37 7
56 10 19 4 41 11 48 17 6 5 12 7 12 4 0 -7 71 15 155 49 252 101 464 285 627
547 31 50 168 317 168 328 0 9 81 186 117 254 30 58 87 131 112 144 27 15 73
19 99 10 13 -5 49 -11 80 -14 31 -3 68 -7 82 -10 14 -3 43 -7 65 -10 74 -10
100 -13 135 -20 19 -4 42 -7 50 -7 8 0 38 -4 65 -8 28 -5 70 -12 95 -15 25 -3
52 -8 60 -10 8 -2 39 -7 69 -10 30 -4 63 -9 75 -11 27 -6 60 -11 116 -19 25
-4 83 -13 130 -22 47 -8 95 -17 108 -19 12 -2 34 -6 50 -9 15 -3 43 -8 62 -10
19 -3 55 -10 80 -15 25 -5 63 -12 85 -16 50 -9 61 -11 105 -20 19 -3 46 -8 60
-10 14 -2 57 -10 95 -19 39 -9 88 -19 109 -21 22 -3 44 -8 48 -10 5 -3 21 -7
36 -10 36 -6 109 -21 207 -44 44 -10 94 -21 110 -24 17 -3 57 -12 91 -20 34
-8 72 -17 85 -20 13 -3 44 -10 69 -16 111 -26 135 -27 201 -6 172 54 231 276
111 412 -72 81 -133 151 -152 174 -106 127 -317 340 -336 340 -3 0 -14 9 -26
20 -50 46 -272 132 -292 113 -2 -3 -42 -7 -88 -9 -87 -3 -212 -11 -313 -19
-33 -3 -94 -8 -135 -10 -106 -7 -195 -14 -265 -19 -33 -3 -99 -8 -148 -12 -48
-3 -111 -8 -140 -10 -28 -3 -74 -6 -102 -8 -27 -2 -86 -7 -130 -10 -165 -15
-241 -21 -390 -31 -33 -3 -85 -7 -115 -9 -30 -3 -93 -8 -140 -11 -47 -3 -94
-7 -105 -9 -11 -2 -34 4 -51 12 -35 16 -31 6 -94 239 -38 140 -72 256 -87 293
-3 8 -6 18 -5 21 1 4 -8 31 -19 60 -11 30 -22 61 -24 69 -2 8 -4 15 -5 15 -1
0 -3 7 -5 15 -4 18 -93 267 -105 295 -5 11 -23 56 -39 100 -17 44 -36 94 -42
110 -7 17 -13 32 -14 35 -5 15 -19 49 -31 77 -8 17 -14 33 -14 36 0 2 -8 22
-17 43 -9 22 -17 41 -18 44 -1 3 -9 22 -18 44 -9 21 -17 40 -17 41 0 1 -8 20
-17 41 -9 22 -18 42 -19 47 -1 4 -3 9 -4 12 -1 3 -3 8 -5 13 -1 4 -9 23 -18
42 -8 19 -13 38 -9 42 7 7 49 16 112 23 19 3 49 7 65 9 154 23 474 23 680 1
22 -2 69 -7 105 -10 36 -3 76 -8 90 -10 14 -2 50 -7 80 -10 30 -4 64 -9 75
-12 11 -2 38 -6 60 -8 22 -3 51 -7 65 -9 14 -2 50 -7 80 -11 30 -4 58 -9 62
-11 3 -2 28 -6 55 -9 26 -3 59 -7 73 -10 13 -2 42 -7 65 -10 22 -3 51 -8 65
-10 14 -3 43 -7 65 -10 22 -2 84 -11 139 -19 54 -9 101 -15 105 -14 3 0 11 -1
16 -2 26 -5 92 3 116 16 15 7 29 11 31 8 3 -3 27 16 52 41 50 48 90 123 80
148 -3 8 -1 18 5 21 13 9 -6 110 -28 146 -5 8 -68 76 -140 150 -354 366 -379
390 -469 438 -62 33 -162 34 -221 3 -9 -5 -29 -11 -46 -14 -40 -8 -62 -13
-115 -27 -25 -7 -52 -14 -60 -15 -8 -2 -15 -4 -15 -5 0 -1 -7 -3 -15 -5 -45
-12 -107 -27 -120 -30 -8 -2 -15 -4 -15 -5 0 -1 -7 -3 -15 -5 -9 -1 -51 -13
-95 -25 -44 -12 -91 -24 -105 -26 -14 -2 -71 -16 -127 -32 -57 -16 -103 -27
-103 -24 0 2 -6 0 -12 -5 -7 -6 -20 -11 -28 -11 -8 0 -100 -24 -205 -52 -104
-28 -198 -53 -208 -55 -10 -2 -27 -7 -37 -10 -10 -3 -28 -8 -39 -10 -32 -7
-53 -13 -88 -24 -18 -5 -33 -8 -33 -5 0 3 -8 0 -19 -5 -10 -6 -31 -13 -47 -15
-16 -3 -45 -10 -64 -16 -19 -5 -38 -6 -43 -1 -4 4 -17 50 -28 102 -11 52 -22
103 -25 114 -3 11 -7 31 -10 45 -2 14 -7 39 -11 55 -4 17 -8 35 -9 40 -1 6 -9
44 -17 85 -9 41 -18 89 -22 105 -3 17 -8 41 -11 55 -3 14 -7 34 -9 45 -1 11
-10 61 -19 110 -8 50 -18 108 -21 130 -2 22 -7 58 -10 80 -22 158 -28 256 -29
460 0 217 10 347 38 484 27 130 7 221 -64 290 -48 46 -130 70 -200 58 -25 -4
-56 -9 -70 -11 -112 -16 -379 -165 -517 -291 -98 -88 -105 -105 -103 -238 3
-190 12 -362 24 -452 3 -16 8 -59 11 -95 4 -36 9 -74 12 -85 2 -11 6 -38 8
-60 2 -22 7 -51 10 -65 3 -14 8 -41 11 -60 3 -19 8 -46 11 -60 8 -40 21 -102
27 -135 4 -16 9 -41 12 -55 3 -14 8 -33 10 -42 7 -32 12 -52 23 -98 7 -25 14
-55 16 -67 3 -12 10 -34 15 -48 5 -14 7 -25 5 -25 -2 0 0 -12 6 -27 6 -16 12
-36 14 -46 6 -26 64 -217 78 -252 6 -16 12 -34 13 -40 1 -5 9 -29 18 -52 8
-24 13 -43 10 -43 -2 0 5 -19 17 -42 12 -24 22 -45 22 -48 -1 -8 4 -22 22 -72
9 -26 16 -51 16 -55 0 -5 7 -18 14 -30 8 -12 16 -30 18 -40 2 -10 11 -35 20
-57 9 -21 17 -42 17 -47 0 -5 4 -17 9 -27 13 -23 35 -76 61 -142 12 -30 27
-68 35 -85 72 -165 117 -275 115 -281 -1 -4 2 -10 7 -13 5 -3 38 -71 73 -151
35 -80 68 -148 73 -151 5 -3 8 -8 6 -10 -1 -2 8 -26 21 -54 58 -127 82 -178
137 -295 181 -377 233 -486 302 -635 23 -49 51 -107 61 -128 11 -22 20 -45 20
-53 0 -8 5 -14 10 -14 6 0 10 -4 10 -10 0 -5 11 -33 24 -62 61 -137 78 -228
61 -343 -4 -27 -11 -59 -15 -70 -4 -11 -8 -23 -9 -28 -2 -13 -35 -71 -68 -117
-34 -49 -147 -160 -162 -160 -5 0 -11 -3 -13 -8 -13 -31 -241 -147 -377 -192
-242 -80 -514 -113 -716 -87 -27 4 -70 9 -95 12 -82 9 -181 24 -199 31 -8 2
-30 7 -50 10 -20 3 -43 8 -51 11 -21 9 -21 9 -65 18 -22 4 -55 14 -72 22 -18
7 -34 13 -35 12 -2 0 -16 4 -31 10 -16 6 -33 11 -38 11 -5 0 -28 8 -52 19 -23
10 -71 31 -107 46 -69 30 -272 134 -280 144 -3 3 -15 12 -27 19 -57 31 -71 39
-124 77 -31 22 -67 47 -79 55 -61 41 -247 191 -335 270 -72 64 -380 376 -445
450 -30 35 -66 75 -80 90 -24 26 -91 103 -127 146 -10 12 -39 45 -65 75 -232
268 -221 252 -610 834 -154 231 -285 422 -289 423 -5 2 -9 8 -9 14 0 9 -174
255 -190 268 -3 3 -22 28 -41 55 -18 28 -37 52 -41 53 -5 2 -8 8 -8 13 0 5 -8
28 -19 52 -22 50 -37 91 -47 132 -4 17 -9 37 -12 45 -12 42 -4 289 12 350 9
36 19 74 21 84 9 41 38 121 46 131 5 5 9 15 9 22 0 20 97 215 140 282 22 34
40 64 40 67 0 3 5 10 10 17 6 7 36 48 67 92 71 99 64 90 114 150 133 161 277
308 454 464 177 157 472 346 680 437 53 23 227 94 240 98 6 2 24 9 40 15 17 7
35 14 40 15 11 2 118 42 150 57 61 27 725 239 795 253 8 2 22 6 30 9 16 6 450
124 488 132 43 10 57 13 122 30 36 10 74 19 85 21 11 2 47 10 80 18 33 8 87
17 120 20 33 2 60 5 60 6 0 0 23 3 50 5 28 1 77 6 110 9 276 27 539 37 910 36
359 -1 485 -3 485 -10 0 -3 33 -5 73 -6 39 0 119 -4 177 -8 58 -5 123 -10 145
-12 22 -1 40 -3 40 -4 0 -1 23 -3 50 -5 115 -10 204 -20 270 -32 17 -3 46 -7
65 -9 19 -2 51 -6 70 -8 19 -2 62 -9 95 -14 33 -6 76 -13 95 -16 53 -8 92 -16
120 -22 13 -3 40 -7 60 -10 56 -7 295 -59 295 -64 0 -1 9 -3 20 -5 11 -2 56
-16 100 -30 44 -14 87 -25 95 -25 9 0 21 -5 28 -12 7 -7 12 -9 12 -6 0 3 28 0
62 -8 35 -8 85 -17 111 -19 26 -2 52 -7 57 -10 5 -3 12 -1 15 5 5 8 11 8 19 1
7 -6 15 -9 17 -6 3 2 20 7 38 10 143 25 211 136 188 305 -4 29 -67 172 -107
240 -5 8 -27 56 -51 105 -170 364 -199 426 -199 431 0 2 -19 43 -41 91 -23 49
-68 148 -100 221 -102 229 -130 270 -209 305 -36 16 -152 32 -162 22z"/>
</g>
</svg>
